TITLE ""
FILE "Step1_Track18.mp3" MP3
  TRACK 01 AUDIO
    TITLE "Step1_Track18_01"
    INDEX 01 00:00:00
  TRACK 02 AUDIO
    TITLE "Step1_Track18_02"
    INDEX 01 00:00:24
  TRACK 03 AUDIO
    TITLE "Step1_Track18_03"
    INDEX 01 00:01:70
  TRACK 04 AUDIO
    TITLE "Step1_Track18_04"
    INDEX 01 00:02:46
  TRACK 05 AUDIO
    TITLE "Step1_Track18_05"
    INDEX 01 00:03:46
  TRACK 06 AUDIO
    TITLE "Step1_Track18_06"
    INDEX 01 00:03:71
  TRACK 07 AUDIO
    TITLE "Step1_Track18_07"
    INDEX 01 00:06:23
  TRACK 08 AUDIO
    TITLE "Step1_Track18_08"
    INDEX 01 00:06:34
  TRACK 09 AUDIO
    TITLE "Step1_Track18_09"
    INDEX 01 00:07:32
  TRACK 10 AUDIO
    TITLE "Step1_Track18_10"
    INDEX 01 00:07:42
  TRACK 11 AUDIO
    TITLE "Step1_Track18_11"
    INDEX 01 00:10:09
  TRACK 12 AUDIO
    TITLE "Step1_Track18_12"
    INDEX 01 00:10:30
  TRACK 13 AUDIO
    TITLE "Step1_Track18_13"
    INDEX 01 00:11:28
  TRACK 14 AUDIO
    TITLE "Step1_Track18_14"
    INDEX 01 00:11:39
  TRACK 15 AUDIO
    TITLE "Step1_Track18_15"
    INDEX 01 00:13:54
  TRACK 16 AUDIO
    TITLE "Step1_Track18_16"
    INDEX 01 00:14:08
  TRACK 17 AUDIO
    TITLE "Step1_Track18_17"
    INDEX 01 00:15:04
  TRACK 18 AUDIO
    TITLE "Step1_Track18_18"
    INDEX 01 00:15:14
  TRACK 19 AUDIO
    TITLE "Step1_Track18_19"
    INDEX 01 00:17:36
  TRACK 20 AUDIO
    TITLE "Step1_Track18_20"
    INDEX 01 00:17:48
  TRACK 21 AUDIO
    TITLE "Step1_Track18_21"
    INDEX 01 00:18:43
  TRACK 22 AUDIO
    TITLE "Step1_Track18_22"
    INDEX 01 00:18:57
  TRACK 23 AUDIO
    TITLE "Step1_Track18_23"
    INDEX 01 00:21:36
  TRACK 24 AUDIO
    TITLE "Step1_Track18_24"
    INDEX 01 00:21:38
  TRACK 25 AUDIO
    TITLE "Step1_Track18_25"
    INDEX 01 00:22:43
  TRACK 26 AUDIO
    TITLE "Step1_Track18_26"
    INDEX 01 00:22:49
  TRACK 27 AUDIO
    TITLE "Step1_Track18_27"
    INDEX 01 00:25:42
  TRACK 28 AUDIO
    TITLE "Step1_Track18_28"
    INDEX 01 00:25:44
  TRACK 29 AUDIO
    TITLE "Step1_Track18_29"
    INDEX 01 00:26:47
  TRACK 30 AUDIO
    TITLE "Step1_Track18_30"
    INDEX 01 00:26:61
  TRACK 31 AUDIO
    TITLE "Step1_Track18_31"
    INDEX 01 00:29:71
  TRACK 32 AUDIO
    TITLE "Step1_Track18_32"
    INDEX 01 00:30:07
  TRACK 33 AUDIO
    TITLE "Step1_Track18_33"
    INDEX 01 00:30:74
  TRACK 34 AUDIO
    TITLE "Step1_Track18_34"
    INDEX 01 00:31:01
  TRACK 35 AUDIO
    TITLE "Step1_Track18_35"
    INDEX 01 00:33:18
  TRACK 36 AUDIO
    TITLE "Step1_Track18_36"
    INDEX 01 00:33:20
  TRACK 37 AUDIO
    TITLE "Step1_Track18_37"
    INDEX 01 00:34:21
  TRACK 38 AUDIO
    TITLE "Step1_Track18_38"
    INDEX 01 00:34:35
  TRACK 39 AUDIO
    TITLE "Step1_Track18_39"
    INDEX 01 00:37:53
  TRACK 40 AUDIO
    TITLE "Step1_Track18_40"
    INDEX 01 00:37:64
  TRACK 41 AUDIO
    TITLE "Step1_Track18_41"
    INDEX 01 00:38:62
  TRACK 42 AUDIO
    TITLE "Step1_Track18_42"
    INDEX 01 00:38:66
  TRACK 43 AUDIO
    TITLE "Step1_Track18_43"
    INDEX 01 00:42:26
